<?xml version="1.0" standalone="no"?>
<!DOCTYPE svg PUBLIC "-//W3C//DTD SVG 20010904//EN"
 "http://www.w3.org/TR/2001/REC-SVG-20010904/DTD/svg10.dtd">
<svg version="1.0" xmlns="http://www.w3.org/2000/svg"
 width="300.000000pt" height="300.000000pt" viewBox="0 0 300.000000 300.000000"
 preserveAspectRatio="xMidYMid meet">
<metadata>
Created by potrace 1.11, written by Peter Selinger 2001-2013
</metadata>
<g transform="translate(0.000000,300.000000) scale(0.100000,-0.100000)"
fill="#000000" stroke="none">
<path d="M1350 2859 c-598 -67 -1087 -525 -1197 -1119 -26 -141 -23 -383 5
-517 113 -526 495 -925 1013 -1058 565 -145 1171 94 1488 585 90 140 168 337
198 500 23 128 23 362 0 490 -68 368 -283 693 -600 903 -259 172 -592 251
-907 216z m310 -499 l0 -60 -240 0 -240 0 0 -650 0 -650 -65 0 -65 0 -2 648
-3 647 -242 3 -243 2 0 54 c0 29 3 56 7 59 3 4 251 7 550 7 l543 0 0 -60z
m420 -445 c95 -26 151 -57 203 -115 61 -68 82 -131 82 -245 -1 -107 -20 -158
-86 -230 -50 -55 -111 -88 -203 -111 -36 -9 -64 -19 -62 -23 2 -3 94 -156 205
-339 l201 -333 -76 3 -77 3 -196 332 -196 332 -122 1 -123 0 0 -335 0 -335
-70 0 -70 0 0 703 c0 387 3 707 8 711 4 5 122 6 262 3 196 -4 270 -9 320 -22z"/>
<path d="M1630 1564 l0 -256 193 4 c207 5 244 12 318 63 49 35 77 79 91 147
14 70 -7 149 -54 197 -75 77 -170 100 -410 101 l-138 0 0 -256z"/>
</g>
</svg>
